/* XPM */
static char *_83a1292280d4c70daa9a1bb9e49d58aeUKQGaRRJ4BVTcSN[] = {
/* columns rows colors chars-per-pixel */
"50 50 216 2 ",
"   c #7E1E12",
".  c #532503",
"X  c #543107",
"o  c #502B10",
"O  c #563E18",
"+  c #76290F",
"@  c #6A2816",
"#  c #75291D",
"$  c #73331B",
"%  c #7A341B",
"&  c #64380B",
"*  c #6A2A22",
"=  c #752721",
"-  c #6B3C22",
";  c #7C3728",
":  c #5E4F0E",
">  c #7C400E",
",  c #655311",
"<  c #74571D",
"1  c #795636",
"2  c #745A27",
"3  c #82211B",
"4  c #9C361D",
"5  c #A42E14",
"6  c #B42F1C",
"7  c #842823",
"8  c #8B3B28",
"9  c #9F3124",
"0  c #A62F26",
"q  c #B2401C",
"w  c #B06418",
"e  c #81422B",
"r  c #824026",
"t  c #92422C",
"y  c #864A35",
"u  c #A24D39",
"i  c #B26C3B",
"p  c #BE7938",
"a  c #DE7709",
"s  c #DE7517",
"d  c #E86B0F",
"f  c #E37608",
"g  c #ED7313",
"h  c #E87815",
"j  c #F27517",
"k  c #D7782B",
"l  c #D16A3F",
"z  c #CD752B",
"x  c #E37A29",
"c  c #E87922",
"v  c #BF5C47",
"b  c #A35646",
"n  c #BD7C41",
"m  c #B1714B",
"M  c #B06454",
"N  c #A9654E",
"B  c #DC7D4F",
"V  c #C36C65",
"C  c #BD823E",
"Z  c #A5A22D",
"A  c #B5A72C",
"S  c #D38111",
"D  c #CD8718",
"F  c #E8811D",
"G  c #DCA816",
"H  c #E8A910",
"J  c #DB883C",
"K  c #ED862A",
"L  c #E58729",
"P  c #EA8F3C",
"I  c #F08D30",
"U  c #ED913A",
"Y  c #E7933A",
"T  c #F2993F",
"R  c #CCB62D",
"E  c #E3A038",
"W  c #E1BF37",
"Q  c #F7BE39",
"!  c #F0C831",
"~  c #B78645",
"^  c #BDBB57",
"/  c #C28345",
"(  c #CB8443",
")  c #CC8B4D",
"_  c #C48842",
"`  c #D98945",
"'  c #D0914E",
"]  c #CB9557",
"[  c #D49659",
"{  c #DC9C59",
"}  c #ED9443",
"|  c #ED9D4D",
" . c #EA9F44",
".. c #F39943",
"X. c #F49C4B",
"o. c #F89F4B",
"O. c #F59645",
"+. c #F48154",
"@. c #E49E5C",
"#. c #E99F59",
"$. c #FC9E58",
"%. c #D5AB4B",
"&. c #EDA34E",
"*. c #FDA247",
"=. c #E7A555",
"-. c #F2A85D",
";. c #CE8963",
":. c #DC9E66",
">. c #DC8D7E",
",. c #CC936E",
"<. c #E0906F",
"1. c #DAA96E",
"2. c #D8A56D",
"3. c #CDAB7D",
"4. c #E1A464",
"5. c #EBA764",
"6. c #EBAB6C",
"7. c #E7AC66",
"8. c #F0AA6D",
"9. c #FAA965",
"0. c #ECB26B",
"q. c #F1B06E",
"w. c #E9A875",
"e. c #F3AC7D",
"r. c #F8AD73",
"t. c #EEB27D",
"y. c #E6B079",
"u. c #FFB672",
"i. c #F7B979",
"p. c #E2C948",
"a. c #F8C278",
"s. c #E5CC7C",
"d. c #D48781",
"f. c #FF8782",
"g. c #DAB586",
"h. c #DDB893",
"j. c #EBA988",
"k. c #ECBD83",
"l. c #E6B887",
"z. c #F5B681",
"x. c #FFBD9E",
"c. c #FFA9A1",
"v. c #FFB8A4",
"b. c #F0BFB1",
"n. c #EFC18F",
"m. c #F9C487",
"M. c #FBC493",
"N. c #FFCC91",
"B. c #FFCE9A",
"V. c #F8D29B",
"C. c #E0C4AE",
"Z. c #FDCDA7",
"A. c #EAD7AC",
"S. c #FFD5A5",
"D. c #FFCBB6",
"F. c #F2D1B2",
"G. c #FFE3AB",
"H. c #FEEBB5",
"J. c #FDECBD",
"K. c #FFE6B8",
"L. c #FFF2BC",
"P. c #FFDCC6",
"I. c #EDE9C3",
"U. c #F5EBC5",
"Y. c #FCEEC4",
"T. c #F6EDCB",
"R. c #FBEECB",
"E. c #FAE7C9",
"W. c #FEF1C5",
"Q. c #FFF9C7",
"!. c #FDF2CC",
"~. c #FFF9C9",
"^. c #F4F3CB",
"/. c #F5EED3",
"(. c #FBEED2",
"). c #FFE2DE",
"_. c #F5EED9",
"`. c #FFECDC",
"'. c #FFE6D2",
"]. c #F7F1D4",
"[. c #FDF4D4",
"{. c #F5FAD5",
"}. c #FEF9D5",
"|. c #F5F3DB",
" X c #FDF6DE",
".X c #FDF5DA",
"XX c #F6FADC",
"oX c #FFF9DA",
"OX c #FFF8DE",
"+X c #FEF9DD",
"@X c #FFFCDD",
"#X c #FEFADC",
"$X c #FFEFE2",
"%X c #F6F4E2",
"&X c #FCF7E1",
"*X c #FCF7E3",
"=X c #FCF5E2",
"-X c #FEF9E2",
";X c #FBF9E6",
":X c #FEFAE5",
">X c #FFFDE5",
",X c #FEFBE3",
"<X c #FBF6EA",
"1X c #F5F8EB",
"2X c #FAFAEB",
"3X c #FEFAE9",
"4X c #FFFDEA",
"5X c #FDFBEE",
"6X c #FFFEEE",
"7X c #FDFBEB",
"8X c #F7F9E8",
"9X c #FDF7F1",
"0X c #FFFEF1",
"qX c #FFFEF5",
"wX c #FEFDF3",
"eX c #FDFEF9",
/* pixels */
"@X[.#X[.>X|.-X-X|.#X X.X.X[..XR.Y.Y.W.!.!.W.!.!.Y.Y.Y.J.Y.W.W.Y.!.R.R.!.!.W.Y.Y.Y.Y.Y.W.W.W.Y.Y.Y.Y.",
"oXoX@X]. X.X,X&X-X>X-X#X.X[.[.R.!.W.!.!.!.Y.W.!.W.W.Y.Y.Y.W.W.Y.!.!.!.!.!.R.Y.W.Y.Y.Y.Y.W.W.Y.Y.Y.Y.",
"#X#X,X|.#X.X,X&X-X-X#X#X.X[..X[.!.!.!.!.R.Y.R.!.!.W.W.Y.Y.Y.Y.!.!.!.!.!.R.Y.R.!.W.W.Y.Y.Y.Y.Y.Y.Y.J.",
">X#X-X&X,X.X&X-X&X&X-X-X#X.X.X.X[.[.!.!.R.R.R.!.R.Y.Y.Y.Y.Y.W.!.!.!.!.!.R.R.R.!.!.W.Y.Y.Y.Y.Y.J.J.J.",
"4X,X,X,X4X,X;X*X-X-X,X>X>X#X.X.X.X[.[.!.R.R.R.!.R.R.R.Y.R.Y.Y.!.!.!.[.[.[.!.!.!.!.!.Y.Y.Y.Y.J.J.J.J.",
"6X6X4X3X4X4X4X&X,X*X,X>X>X,X.X X.X.X[..X[.!.[.!.[.[.!.R.R.R.U.U.!.!.[.[.[.[.!.R.!.R.Y.Y.Y.Y.J.J.J.J.",
"0X0X0X5X3X6X4X3X;X%X,X,X,X4X,X:X X.X.X.X.X[.[.[..X}.oX[.!.!.!.R.R.!.!.!.!.[.[.!.R.R.Y.Y.Y.Y.J.J.J.J.",
"qX0X0X0X5X2X3X6X6X;X3X;X3X6X3X3X&X X X#X X.X[.[.[.oX@X}..X[..X.XR.R.R.R.R.[.[.[.R.R.R.Y.Y.Y.J.J.J.J.",
"9XqXqX5X1X1X2X2X2X2X6X5X<X6X0X3X,X&X&X&X-X-X X.X[.[.oXoX.XoX.X.X}.[.[.!.R.R.R..XR.!.R.Y.Y.Y.Y.J.J.J.",
"9XqXqX0X5X5X0X6X0X0X0X6X5X5X0X0X6X3X,X,X3X>X-X#X#X/.[.#X,X#X.X.X.X!.T.R.oXoXR.U.R.R.R.Y.Y.Y.Y.J.J.J.",
"<X0X0X0X5XwX0X0X0X0X0X0X0X5X5X0X0X6X3X;X,X,X-X.X-X|. X.X X,X-X.X.X.X.X[.[.[.!.}.!.!.!.Y.W.W.Y.Y.Y.Y.",
"<X5X0X0X5X5X5X5X5X0XqX0X0X5X5X0X0X9X5X2X:X:X&X&X,X X-X X]. X-X#X#X.X.X[.R.R.R.!.[.!.R.Y.W.!.!.!.Y.Y.",
"<X5X6X6X0X5X9X5X1XqXeXqXqX0X5X0X0X0X0X5X3X3X,X4X4X.X-X>X X|..X>X,X#X.X[.[.[.T.T.!.!.Y.Y.Y.!.!.R.Y.Y.",
"<X2X5X0X0X0XwX9X9XqXeXqX0XqX0X0XqXqXqX0X5X3X,X4X,X.X&X-X,X&X|.&X X-X>X#X.X[.!.!.Y.Y.Y.Y.R.R.R.Y.Y.Y.",
"2X2X5X0XqXqXqXwXwXwXqXqX0X0X0X5X0X0X0X0X5X3X;X;X&X,X,X.X,X4X X.X/.|.#X#X@X@XR.U.Y.!.!.!.!.!.R.Y.Y.Y.",
",X3X5X0XqXqXqXwXeX9XwXqXqX6X3X&X,X&X X#X#XoX}.[.R.[.!.R..X.X[.#X.X.X.X[.oX@X.X[.!.!.!.!.R.!.!.R.Y.Y.",
",X3X0X9XeXeXwXqXqX9X9X0X6X-X.X}.Y.J.M.:.6.@.=.=.#.@.{ ' N.Q.W.!.oX[.[.oXT.[.XXXX|.oXR.R.Y.!.!.Y.!.!.",
"3X6X5XeXeXeXwXqX9XqX<X.X,X}.h.g.1.{ -.| } o.T *.O.O.U U J ` ( ] W.Y.}.!.!.[./.XX,X,X[.[.Y.Y.R.!.Y.Y.",
"=X3X5XqXwXeXwXwX5X<X4X#Xh.l.z.8.5.#.| X.X.O.P o.} O.I K K K x x k ` B.~.R..X.X(..X.X|.-X.X^.^.^.!.!.",
"=X%X5X9XeXwXeX9X5X4X#XA.l.m.q.u.9.-.&.&.X.X.X.} ..L K F h g j d g c z [ W.[.R..X(.(./.*X,XXX{.^.T.R.",
",X&X3X5X0X9XqX1XwX;XI.A.V.n.a.a.i.0.7.=.&.| Y ..Y L F h j g j j g f s k [ Y.R.#X.X.X].[.oX.X@XoXoX.X",
"3X;X%X;X&X4X<X1X%X,XU.K.S.B.N.m.B.B.m.m.u.u.9.$. .E D S a f f a s s c k ) W.[..X].oX[.[..X.X#X.X#X.X",
"2X;X|.|.|.,X:X:X3X:X`.y ;.<.x.x.j.,.N 8 4 5 6 q p %.A R G H ! Q w B +.l m .X-X*X]..X}.[.`.`..X[.#X&X",
";X;XXX{.,X,X3X5X3X`.$X; u v.t >.d.).).V c.f.0 9 > s.^ Z p.W ! %.:.'.0 v P.C. X>XoX}..X(.`.`.[.^..X X",
"|.;X%X,X@X,X&X<X5X=X Xy # M D.y = # = = 7 3 7 # @ . X 2 : , < & $ 8   7 * `.:XXX{.}.#X-X=X(.~.W.!.!.",
"4X,X|.|..X>X3X0X6X:X&X1 e r @ % 8 b % % + t 8 # $ $ y - 1 O o - r % 8 % b.=X%X*XXXoX#X#X&X[.!.W.W.!.",
"3X;X|.-X&X3X5X6X3X&X.XF.Z.M.j.;.w.i w.:.4.6.e.e.e.w.t.y.y.k.S.B.N.N.r.e.h.-X&X4XXX@X{.XX.X[.[.!.!.!.",
"=X&X&X4X=X<X2X6X&X-X.X[.g.n.l.t.i.i.0.0.0.6.8.8.6.{ 6.4.@.q.i.7.{ 7.5.2.Y.#X,X;X|.#X{.{..X(.R.!.[.!.",
"&X&X:X3X_.%X2X6X6X-X,X@XW.3.,.1.] ~ ~ ] ) ) p n n n C _ ( ( / / ] ~ 2.J.}./.3X;X.X X[.[..X[.[.[.[.!.",
"-X-X:X3X&X,X,X,X|.>X#X#XoX}.~.W.~.Q.H.H.K.J.J.W.W.Q.G.H.G.G.L.L.G.L.W.R.(..X4X_..X.X[.[..X[..XoXR.R.",
"#X,X-X,X;X4XXX.X&X:X:X4X4X.XoX.X.X,X.X(..X'.R.[. X.X@XU.}.[.R.U.}.}.T.oX X[.(.[..X[.[.}..X[.oXoX}.}.",
".X,X-X.X|.XX|..X,X=X:X3X2X&X4X-X=X%X>X&X=X:X&X|.0X2X>X,X-X-X&X_.|.XX[./..XR..X[.!.^.[.@X.X[..X[.!.!.",
".X.X|.-X.X#XXX-X.X.X&X,X>X-X X-X,X3X4X,X:X:X-X.X|.|.&X4X3X%X|.&X[.].T./.(.#XR.R.!.}.!.(.T.(.[.!.W.Y.",
",X&X.X|. X X X.X,X#X#X#X#X X-X>X,X;X&X&X,X-X&X.X&X X&X,X,X:X&X%X.X.XoX.X.X[.(.R.!.Y.[.R.[.oXY.Y.W.W.",
",X&X X|. X|..X]..X.X.X.X X.X.X.X.X-X&X.X,X-X X-X_._.|.,X4X4X,X.X.X X/.@X[.@X.X#XT.R.!.U.[.U.!.R.Y.Y.",
"&X,X>X-X#X X#X.X.X.X.X#X#X X.X.X.X,X-X#X-X.X.X,X,X-X X|. X-X-X&X4X&X]..X@X[.#X#X@X.XU.U.[.!.}.R.Y.Y.",
"|.-X-X-X.X#X.XoX#X#X.X.X.X.X.XoX.X#X#X#X#X.X[.#X.X.X.X[.|.-X4X4X4X6X|.>X]..X|.#X-X[.!.!.!.}.R.R.Y.J.",
".X X|..X]. X[..X.X.X.X.X.X[.[.]..X.X[..X#XoX[.[.[..X#X.X[..X.X|.6X4X,X.X#X.X,X>X/.[..X}.Y.W.R.!.J.J.",
"-X#X.X#X XoX.X#X.X.X.XoX#X.X.X[..X.X[.[.oX#X.X[..X.X[././.|. X-X6X0X<X&X_.,X X,X-X XT.!.W.W.oXR.J.H.",
".X.X#X#X#X]..X,X.X.X[.[..X.X.X.X.XoX#XoX[..X.X.X@X.X[.].[..X.X|.|.2X0X<X|.XX.X,X4X/.[.U.Y.~.[.!.~.J.",
".X.X.X.X[.[.[..X[.#X.X[..X[.[..X[..XoX.X[..X.X.X.X.X.X.X.X[..XoX>X4XqXqX=X|..X.X-X X.XT.U.U.Y.R.Y.J.",
".X.X.X.X.X.X.X.X[.#X.X[..X.X[..X.X.X.X[.[.[..X.X[.[.[.[.[.[..X.XoX,X9X0X%X.X[..X#X#X-X#X[.!.Y.Y.Y.Y.",
".X.X.X.X.X.X.XoX[..X[.[.[.[.[.[..X[.[.[.[.[..X.X.X.X.X.X.X.X.XoX#X,X,X6X&X-X.X.XoX.X#X.X[.!.U.Y.J.J.",
"[..X.X.X.X.X.X.X(..X[.[.[.[.[.[.!.R.R.[.[.[.[..X.X.X.X.X.X.X.X.X.X].-X_.,X/..XT.[.[..X#X.X[.T.U.Y.J.",
"[.[.[.[.[.[.[..X[.oXoXoX.X.X.X[.[.!.!.[.!.!.R.[.[..X.X[..X[.[.[.[.@X].@X[.,X[..X[.[..X#X@X@X[.W.J.H.",
"[.[.[.[.[.[.[.[.[.oX.X.X.X[.[.!.!.!.!.!.R.R.!.[.!.[.[.[.[.[.[.!.!.!.!.U..X.X.X[..X[.[.[..X#X.X[.W.J.",
"!.!.[.[.[.[.[.[.[.[.[..X[.[.[.T.!.!.!.R.R.!.!.!.R.!.!.!.R.R.R.R.R.!.!.U.!..X X X(.T.[.[..XoX[.!.Y.J.",
"!.!.!.!.[.[.[.[.[.[.[..X.X.X.XT.!.!.!.Y.R.!.W.Y.!.!.!.W.Y.Y.R.Y.R.!.Y.Y.W.[.[. X[.R.!.!.(.[.[.[.!.!.",
"R.[.!.!.[.[..X[..X.X.X.X.X.X.X[.!.!.Y.Y.W.Y.W.Y.Y.Y.Y.Y.Y.Y.Y.Y.Y.Y.W.Y.!.!.[.R.[.[.R.!.[.!.[.[.!.!.",
"R.[.!.!.[.[..X[.[.[.[.[.[..X.X[.!.!.Y.Y.Y.Y.W.W.Y.Y.Y.Y.W.Y.Y.Y.Y.Y.!.Y.Y.R.[.R.[.[.R.R.!.!.!.!.!.!."
};
