/* XPM */
static char *_4d53283b65742da8a4afe17b7a51c5cOeO7ipwF75bvYbPO[] = {
/* columns rows colors chars-per-pixel */
"50 50 150 2 ",
"   c #FBEBB7",
".  c #F7ECBE",
"X  c #FDECBD",
"o  c #F6EBC5",
"O  c #FCEEC4",
"+  c #F6EDCB",
"@  c #FBEECB",
"#  c #FEF1C6",
"$  c #FDF1CC",
"%  c #FFF9CF",
"&  c #EFEDD6",
"*  c #F5EED3",
"=  c #F9EFD1",
"-  c #F5EED9",
";  c #FAEFDB",
":  c #F7F0D4",
">  c #FDF3D4",
",  c #FFF8D5",
"<  c #FFF9D5",
"1  c #FFF8D7",
"2  c #FFFAD6",
"3  c #FFF9D5",
"4  c #F6F0DA",
"5  c #F6F2DB",
"6  c #F9F3D9",
"7  c #FBF5DB",
"8  c #FCF5D8",
"9  c #FCF5D9",
"0  c #FEF4D9",
"q  c #FDF6D9",
"w  c #FDF6DA",
"e  c #FEF7DA",
"r  c #FEF7DB",
"t  c #FBF5DD",
"y  c #F9F4DE",
"u  c #FAF5DF",
"i  c #FDF6DC",
"p  c #FDF7DD",
"a  c #FEF7DD",
"s  c #FCF6DE",
"d  c #FEF6DF",
"f  c #FCF5DB",
"g  c #FFF8D9",
"h  c #FFF9D9",
"j  c #FDF8DB",
"k  c #FFF8DB",
"l  c #FFFADA",
"z  c #FFFADB",
"x  c cornsilk",
"c  c #FFF9DC",
"v  c #FFF9DD",
"b  c #FFFBDC",
"n  c #FFFADD",
"m  c #FEF8DE",
"M  c #FFF8DE",
"N  c #FFF9DF",
"B  c #FFF9DC",
"V  c #F7F6E2",
"C  c #F6F5E2",
"Z  c #FBF4E1",
"A  c #FBF6E0",
"S  c #F9F7E2",
"D  c #FBF6E2",
"F  c #FCF6E0",
"G  c #FCF7E1",
"H  c #FDF7E1",
"J  c #FCF7E3",
"K  c #FBF6E3",
"L  c #FBF9E2",
"P  c #FAF8E3",
"I  c #FEF8E0",
"U  c #FFF9E1",
"Y  c #FFFAE0",
"T  c #FDF8E2",
"R  c #FEF8E2",
"E  c #FFFAE2",
"W  c #FFFAE3",
"Q  c #FFFBE3",
"!  c #FBF9E4",
"~  c #FBF8E5",
"^  c #FAF9E5",
"/  c #FBF8E7",
"(  c #FBFAE6",
")  c #FDF8E4",
"_  c #FDF8E5",
"`  c #FEF9E5",
"'  c #FFFAE4",
"]  c #FFFBE5",
"[  c #FCF9E6",
"{  c #FEF9E6",
"}  c #FFF9E6",
"|  c #FDFBE6",
" . c #FDFAE7",
".. c #FFFAE6",
"X. c #FFFAE7",
"o. c #FFFDE5",
"O. c #FFFCE6",
"+. c #FEFCE7",
"@. c #FFFDE7",
"#. c #FEFAE4",
"$. c #F7F6EB",
"%. c #F9F7E8",
"&. c #F8F6E9",
"*. c #FAF6EA",
"=. c #FAFBE9",
"-. c #FBF9EA",
";. c #FAFBEB",
":. c #FDFAE9",
">. c #FCFBE9",
",. c #FFF9EB",
"<. c #FDFAEB",
"1. c #FEFBEA",
"2. c #FFFCE8",
"3. c #FFFCE9",
"4. c #FEFDE9",
"5. c #FFFDE9",
"6. c #FFFFE9",
"7. c #FFFDEA",
"8. c #FFFCEB",
"9. c #FFFEEB",
"0. c #FDF9ED",
"q. c #FDFBEC",
"w. c #FCFAED",
"e. c #FEFBEC",
"r. c #FFFBED",
"t. c #FDF9EE",
"y. c #FDFBEF",
"u. c #FFFBEF",
"i. c #FBFCEC",
"p. c #FFFCEC",
"a. c #FFFDEC",
"s. c #FFFCED",
"d. c #FFFEEC",
"f. c #FFFFED",
"g. c #FFFCEE",
"h. c #FFFDEE",
"j. c #FFFEEF",
"k. c #FEFFEF",
"l. c #FFFFEF",
"z. c #FEFBEB",
"x. c #FCF7F1",
"c. c #FEF9F3",
"v. c #FFFCF0",
"b. c #FFFCF3",
"n. c #FFFEF2",
"m. c #FFFFF2",
"M. c #FFFFF4",
"N. c #FFFFF6",
"B. c #FEFDF2",
"V. c #FFFEF8",
/* pixels */
"c k k : Y p H H 4 Y p 9 8 > 8 @ o o $ $ $ # $ $ O O X X O # # O $ @ $ $ $ $ O O O O O O O # O O O O ",
"c c c 6 Y t H H Y 9.Y c 9 > 8 $ @ @ $ $ $ O # $ # # O O O O O O $ $ $ $ $ $ o # # # O O O O O O O O ",
"Y p Y p t t ] H Y o.Y c 9 8 9 > > $ $ $ @ O @ $ $ # O O O O O $ $ $ $ @ @ o $ $ # # O O O O O O O O ",
"] H ] ] D D ] D H H Y Y Y p p 9 8 > $ $ @ @ @ $ @ o o O O O O $ $ $ $ $ $ @ $ $ $ # O O O O O X X X ",
"9.] ] 9.] ] ] D ] P ] o.o.Y t p 8 > > $ $ @ @ $ $ @ @ o O o O @ $ $ > > > $ $ $ $ # O O O O X X X X ",
"l.e.1.l.1.9.] ! o.P ] 9.9.] D H 9 8 8 > > > > > > > $ $ @ o o o $ $ $ $ > > $ $ $ O O O O O X X X X ",
"v.v.e.l.e.l.1.9.! V ] ] 9.9.] ] p 7 9 9 9 8 > > 8 1 1 > $ $ @ @ @ $ $ $ $ $ $ $ $ @ O O O O X X X X ",
"b.M.e.e.e.l.-.l.l.! 1.1.9.l.e.l.H D p Y p 9 > > 8 k c 1 > > 8 > @ $ @ @ $ > > > @ @ o O O O X X X X ",
"b.M.M.e.&.&.;.i.l.-.l.e.&.v.v.l.! ! ] ] ] Y 7 > 8 8 c k k k 8 8 1 < > $ @ @ @ 8 $ @ $ O O # X O X X ",
"x.M.M.v.$.$.v.l.v.l.v.e.$.v.v.v.v.9.1.! ] ] Y Y c : > c Y n 9 9 8 $ + $ 1 k @ o $ @ $ O O # O X X X ",
"*.b.v.v.e.v.v.v.v.v.M.v.e.v.e.v.v.l.-.-.] ] P t Y 4 7 7 p Y Y 9 8 8 1 > > > $ 1 $ $ $ $ # O # O X X ",
"&.e.v.v.v.b.x.$.$.v.M.v.v.v.$.v.v.e.e.-.1.! P D ] t Y 9 : p Y c c 9 9 : > @ @ $ $ $ o @ $ O $ # O O ",
"%.1.l.v.v.e.x.$.$.M.M.M.v.v.$.v.M.M.b.$.-.-.9.9.9.7 Y o.p 4 6 o.Y c 9 > > > @ @ @ $ o o O o $ @ O O ",
"%.1.9.l.v.v.v.x.M.M.V.v.v.v.e.M.M.V.M.v.e.-.1.9.] t c Y o.p 6 Y p Y o.c 9 > @ > o @ O O @ @ @ o O O ",
"] ] 9.l.v.v.M.M.V.c.M.M.v.M.v.v.M.M.M.v.l.-.! V V ] ] t ] 9.H t - 6 c c n k @ + @ O $ @ $ $ @ @ @ O ",
"1.] 9.l.v.M.M.M.V.$.M.M.M.M.$.&.b.b.$.e.v.v.l.l.D o.Y t ] ] y ] t t 9 7 k k > > $ @ $ @ @ > @ $ O O ",
"1.l.l.e.M.M.M.M.M.V.x.v.v.e.v.1.*.C &.e.M.V.M.v.l.! D 9.P 9.e.1.Y : 7 c : > 9 8 $ 1 @ @ + > > o $ # ",
"e.v.e.v.v.M.M.M.x.M.$.x.v.v.v.V H D *.e.*.*.b.v.v.-.V ] %.l.e.1.] c Y 9 > : 9 > k n 8 > + $ $ $ O O ",
"-.1.1.v.$.v.v.v.x.M.b.b.v.v.v.C l.] 1.e.1.-.e.v.v.v.&.$.1.l.1.l.H o.Y Y - p > > > 8 > 8 > + + $ $ $ ",
"%.V l.l.v.b.v.$.v.v.v.e.e.v.l.-.l.J J ] ! %.! ! l.v.e.$.e.e.&.9.] H ] t o.- 8 p = > = 9 c 8 8 > @ + ",
"] V ] 1.l.l.v.&.v.v.v.v.e.$.-.e.%.%.P Y t t t D 1.v.b.b.v.&.%.1.1.l.J 9.H H - H i 9 > > 9 9 c k 8 8 ",
"1.! C %.V e.&.&.e.$.v.v.v.e.-.l.-.%.! Y Y Y Y 5 1.e.v.M.M.e.1.9.e.v.v.%.e.J J H ; p p > > > 9 8 c p ",
"] ] 5 D V 1.%.-.e.1.l.l.l.v.e.l.e.-.D V Y o.Y - H C e.v.v.l.l.9.&.v.e.1.*.l.] ] y p Y 9 9 > 9 > H H ",
"Y Y ] V 9.] 1.l.e.-.l.&.-.v.l.l.l.l.9.D D ] ] t y - D ] l.1.l.! 1.1.e.l.l.] ] J ] H 9 > 9 > 8 > 9 p ",
"7 Y D ] 9.9.D %.l.1.l.%.1.1.1.1.v.l.l.-.%.D Z H - : 6 7 o.9.9.1.l.1.l.] 1.D y Y p c c c > $ > @ > $ ",
"o.Y 5 D D 9.] 9.1.%.9.1.9.l.1.1.9.V v.v.e.e.J - : 9 8 k * t 4 l.9.9.9.5 D D H Y c c k k 8 > > $ $ $ ",
"o.Y t Y t ] ] 9.J J ] ] ] 9.%.] l.C l.v.e.v.1.4 7 > 8 1 8 : * Y H 4 t t o.Y Y 9.p c k k 9 > $ > > $ ",
"t t Y 9.y t H 9.] ] J ] D ] %.] 9.V 1.e.*.l.1.D c k + n 8 c * 6 - c Y 4 p o.o.7 > c 9 9 9 > @ $ > $ ",
"D D H ] - 5 H 1.] 1.] 9.! ] ] 9.D D %.%.1.1.J ] Y Y 7 * n + Y 9 9 > > 6 c 6 7 c > 9 > 8 8 > > > $ $ ",
"] ] J ] D ] ] ] H ] ] 9.1.] 9.1.] 9.] 5 D D 5 o.H o.6 6 7 > c 9 * 9 7 * p p Y 6 7 9 > 8 9 > 8 k @ @ ",
"] 9.] ] ] 9.H D Z J H ] 9.! 9.] 9.o.] 7 5 5 4 P o.] 1.4 Y 9 8 @ 9 8 > 9 Y : 6 : p 7 > 9 9 > k 8 1 < ",
"t 9.Y D t H y t ] ] Y H o.D 9.] H D Y Y c p t y 9.] l.] H Y + > 8 8 = * 9 > 9 7 9 > 8 c 9 > 8 $ $ O ",
"7 Y 4 Y t t Y Y p t p o.o.p t Y ] ] ] ] Y Y Y t 4 - H 9.9.y - p > > = = * c > > $ 2 > = * > > $ # O ",
"Y c 7 7 t c p 7 Y c p c c p H o.D P ] Y ] o.Y t H H H ] ] J D y p 9 k 8 k 9 = + o o > @ > c o # # # ",
"Y 7 Y - 7 p 6 6 p p p p p 9 9 t t Y H Y o.Y p Y - 6 p Y 9.l.] y y p * c 8 c 9 b o $ @ + > @ @ $ # # ",
"c c o.p p c p c 7 p c c c c p 7 t Y Y c Y 7 7 Y Y Y p 6 t ] ] D 1.H 6 7 c > c c n 8 o o > $ 1 @ O O ",
"7 Y c Y 7 7 c p c c 9 9 9 9 9 9 7 Y p k c 8 > c 9 9 7 > 7 Y o.l.l.l.4 o.7 k > 9 Y * > o $ $ @ @ O X ",
"7 Y - p 6 6 p 7 9 9 9 9 9 9 > : 7 7 > 7 n c > > 9 9 c 9 7 6 6 y l.l.! t c 7 Y Y - = 1 $ # O @ @ O   ",
"Y c p c 9 9 c c 9 9 9 c c k 9 > 9 8 > 8 c k 8 > 8 8 : * * 7 c p l.v.1.! & c p Y ] c + $ # # 1 @ #   ",
"9 > Y c c 7 9 Y 9 > > > 9 9 9 k 9 9 9 9 8 8 k 8 k k > * > c 9 : D e.M.&.4 Y 9 c o.6 + o o % > $ $ X ",
"9 9 9 9 8 > > 8 > 9 > 8 8 > > 8 > 9 9 9 > > 8 k 8 8 9 8 8 > 9 9 Y l.v.M.%.D > 9 Y p 8 + o o o $ O X ",
"9 9 9 9 9 8 8 9 8 c 8 8 8 8 8 8 9 9 9 8 > > > 8 > > > > > > 9 9 Y ] v.*.J 4 9 8 c c Y k > $ o o O O ",
"9 8 9 9 8 8 8 k > k > > > 8 8 > > > > > > > 8 8 8 8 9 9 9 9 c k 9 Y 9.l.1.Y 8 > k 9 c 9 > $ o o X X ",
"> > 8 8 8 8 8 8 = 8 8 > > 8 8 8 > > > > > > > 8 8 8 k 8 8 8 8 8 k 7 H * H - k > = > 9 c k 8 + o O X ",
"> > 8 > > > > > > 9 9 k k 8 8 8 > > > > $ $ $ > 8 8 8 > 8 8 > > > k > Y 9 Y > > > = 8 c Y n > $ X   ",
"> 8 8 > > > > > > 9 8 k k > > > $ $ > $ $ @ $ > > > > > > > > > > $ @ + @ > 9 9 8 > > > k c 8 > # X ",
"$ > > > > > 8 > > 8 > > 8 > > @ $ $ $ $ $ $ $ $ @ $ $ o @ $ @ @ @ $ # $ $ k 9 9 = + $ 8 9 9 > $ o X ",
"$ $ > $ $ $ > > > 8 > > 9 9 9 @ $ $ $ @ @ $ # O # $ $ O o $ @ @ @ @ $ . $ $ 9 9 > @ $ $ > > > > $ O ",
"@ > $ $ > > 8 > 8 8 8 8 8 8 8 8 @ $ O O # O # # O O o O o o O O O O # o $ $ > @ > > $ @ > $ > $ $ $ ",
"@ > $ $ > > 8 > > > 8 > > > 8 8 $ $ # O # O # # O O O # O O # O O O # O $ $ > $ > > @ @ > @ > @ @ @ "
};
