/* XPM */
static char *a3f334a9a9e94f849c04464de7c38a55dhGs6Mk6upIz5pTO[] = {
/* columns rows colors chars-per-pixel */
"50 50 255 2 ",
"   c #51320A",
".  c #672E07",
"X  c #6A3B14",
"o  c #543B28",
"O  c #653C30",
"+  c #374900",
"@  c #5D4301",
"#  c #445600",
"$  c #585801",
"%  c #4D4A0B",
"&  c #6C4E11",
"*  c #56710A",
"=  c #636A04",
"-  c #667508",
";  c #787708",
":  c #747818",
">  c #6D710F",
",  c #5C4739",
"<  c #765725",
"1  c #6F512C",
"2  c #727026",
"3  c #6A5849",
"4  c #547671",
"5  c #757477",
"6  c #776D49",
"7  c #9D3E0E",
"8  c #8D501D",
"9  c #B04616",
"0  c #897118",
"q  c #A4791E",
"w  c #885726",
"e  c #9B5A28",
"r  c #885A39",
"t  c #834A2C",
"y  c #856526",
"u  c #896736",
"i  c #936738",
"p  c #987738",
"a  c #8E7B29",
"s  c #A26A3B",
"d  c #A8763B",
"f  c #AF7338",
"g  c #D4703F",
"h  c #98754A",
"j  c #916E49",
"k  c #A87C4B",
"l  c #B3764E",
"z  c #997967",
"x  c #AD7B63",
"c  c #DB7141",
"v  c #6B8619",
"b  c #798318",
"n  c #688904",
"m  c #758828",
"M  c #7C8D30",
"N  c #7FA117",
"B  c #6E8D4D",
"V  c #719271",
"C  c #5F8963",
"Z  c #8E8E13",
"A  c #AEA818",
"S  c #878727",
"D  c #9A8A26",
"F  c #8B9529",
"G  c #979828",
"H  c #9A9A37",
"J  c #869537",
"K  c #A49B29",
"L  c #A6873D",
"P  c #AE8C37",
"I  c #8EA92E",
"U  c #A9A82B",
"Y  c #B2AA37",
"T  c #B4B534",
"R  c #A9AB35",
"E  c #AF9C19",
"W  c #C6BB2F",
"Q  c #ABC73E",
"!  c #D8CD37",
"~  c #939B49",
"^  c #989656",
"/  c #988752",
"(  c #A59744",
")  c #B69547",
"_  c #AA8757",
"`  c #A99B57",
"'  c #B88C52",
"]  c #8FA44C",
"[  c #B6A947",
"{  c #A8B644",
"}  c #B9B946",
"|  c #BAB957",
" . c #A9AE52",
".. c #978D6D",
"X. c #A98565",
"o. c #B79968",
"O. c #B89073",
"+. c #91B474",
"@. c #A9A967",
"#. c #B7B96C",
"$. c #B8AA77",
"%. c #B2B072",
"&. c #C5955D",
"*. c #C9914E",
"=. c #C5B654",
"-. c #C8AF55",
";. c #C79770",
":. c #F99A6B",
">. c #C7B565",
",. c #D9A676",
"<. c #CFAE71",
"1. c #EAAC78",
"2. c #A6C546",
"3. c #B5CA54",
"4. c #ADC364",
"5. c #BCC96A",
"6. c #B2C879",
"7. c #9FC148",
"8. c #CECF57",
"9. c #C3C968",
"0. c #DAD677",
"q. c #D1CB70",
"w. c #E1CC7D",
"e. c #C9E16E",
"r. c #F2EA77",
"t. c #538990",
"y. c #728C91",
"u. c #709AA7",
"i. c #78ACB7",
"p. c #59A0AE",
"a. c #949486",
"s. c #A89B85",
"d. c #BA9A87",
"f. c #96AB8E",
"g. c #B7A985",
"h. c #B7B69B",
"j. c #ADAF90",
"k. c #8AB2B6",
"l. c #B6BBA4",
"z. c #B9BFBF",
"x. c #CA9D82",
"c. c #D29F80",
"v. c #CAA988",
"b. c #D4A78A",
"n. c #C8B484",
"m. c #DBB786",
"M. c #C9AB94",
"N. c #C7B695",
"B. c #D8B599",
"V. c #D3AD94",
"C. c #E6B489",
"Z. c #FDBC8C",
"A. c #E6BB98",
"S. c #F8BD98",
"D. c #E4AE8C",
"F. c #DCBAA5",
"G. c #CDB7A3",
"H. c #E5BEA6",
"J. c #B9C98B",
"K. c #B5CAAB",
"L. c #98CBA0",
"P. c #D6C696",
"I. c #D3CD8F",
"U. c #E8C887",
"Y. c #F7C68D",
"T. c #E6D687",
"R. c #ECCD9B",
"E. c #E7C692",
"W. c #F7C896",
"Q. c #E9D19A",
"!. c #FED39D",
"~. c #F7D698",
"^. c #F4D585",
"/. c #D7E596",
"(. c #E8E59A",
"). c #FBE99A",
"_. c #EDF18F",
"`. c #C6C6A8",
"'. c #DAC7A6",
"]. c #D9D8A8",
"[. c #CAC7B7",
"{. c #DCD4BA",
"}. c #E8CAA6",
"|. c #E8D7A7",
" X c #FCDCA6",
".X c #FEDDAB",
"XX c #F7D7A6",
"oX c #E7D8B7",
"OX c #FDDAB5",
"+X c #F4CAB0",
"@X c #DBE7AD",
"#X c #E8E4A4",
"$X c #FDE3AD",
"%X c #FEEAAD",
"&X c #F9E5A9",
"*X c #F9F5A9",
"=X c #F5E5B3",
"-X c #FDE4B3",
";X c #FDEAB5",
":X c #FCE5BA",
">X c #FDECBC",
",X c #F6E9B9",
"<X c #FCF1BD",
"1X c #F7FAB9",
"2X c #E9E2B7",
"3X c #89B9C6",
"4X c #A6BEC0",
"5X c #9AC7D4",
"6X c #94C2C8",
"7X c #B8D8DB",
"8X c #A9D0D5",
"9X c #BDDAE4",
"0X c #D5D7C5",
"qX c #D6D7D0",
"wX c #EFDEC7",
"eX c #CDE4CF",
"rX c #EDECC8",
"tX c #F5ECC3",
"yX c #FDEDC3",
"uX c #F5EDCC",
"iX c #FDEDCB",
"pX c #F9E5C5",
"aX c #FDF2C5",
"sX c #FFFAC3",
"dX c #F5F2CB",
"fX c #FDF2CC",
"gX c #FDFCCC",
"hX c #F5FAC7",
"jX c #E9E8DA",
"kX c #FEEDD3",
"lX c #FAEBD8",
"zX c #F6F3D3",
"xX c #FDF4D4",
"cX c #FEFBD4",
"vX c #FEF6DD",
"bX c #FDF5DB",
"nX c #F6FCDD",
"mX c #FEFBDC",
"MX c #F5F8D9",
"NX c #ECF3CB",
"BX c #CADDE3",
"VX c #D7E6EA",
"CX c #CFE8EF",
"ZX c #EAEAE8",
"AX c #F5F3E5",
"SX c #FDF5E3",
"DX c #FEFBE3",
"FX c #FEF5EC",
"GX c #FEFCEC",
"HX c #F5F8E9",
"JX c #E9EDF2",
"KX c #FEFEF3",
"LX c #FDFDF9",
"PX c #F8F7F4",
"IX c #F4F3EE",
/* pixels */
"mXbXFXAXDXzXDXmXzXxXvXDXfXaXfXkXkXiXxXfXtXaXfXfXiXiXyX:X>XaXaXyXfXfX>XaXaXfXiXuXaX<X<X<XaXyXiXyXyXyX",
"bXvXGXAXmXMXDXmXmXmXDXvXdXcXxXkXkXkXiXaXaXaXaXxXiXiXyXyXyXyXyXfXiXiXgXaXfXaXiXiXaXaX<X<XaXaXyXyXyXyX",
"vXvXDXbXvXvXDXSXbXmXGXFXbXxXzXzXxXxXaXaX>XyXyXfXxXfXaXaXyXtXyXiXxXiXiXfXtXaXyXyXiXyXyX>X<X<XyXyXyX>X",
"DXvXSXSXDXSXSXDXvXbXSXGXGXSXvXDXxXxXfXaXyXyXiXiXiXiXtXtXyXaXfXiXxXxXkXxXiXtXyXfXiXiXyXtX>X<XyXyX>X>X",
"DXDXDXFXKXFXDXvXbXDXGXFXFXFXvXzXmXzXxXfXiXiXkXkXkXiXiXyX>X>X>X>XyXB.M.kXxXmXtXpXiXiXiXtXtXtXyXyX>X>X",
"DXDXGXGXKXKXDXvXDXvXSXGXKXFXDXxXxXbXxXxXxXkXkXbXvXxXxXfX>X,X>X>XA.x.V.xXxXxXfXcXfXiXiXyXyX>X>X>X>X>X",
"GXKXGXGXKXKXGXDXvXvXDXSXKXGXuXg.G.vXxXbXbXbXlXbXSXbXbXxXuXgXgXyX}.j |.iXcXxXdXuXfXyXyXyXyX>X;X;X>X>X",
"KXKXGXKXGXGXFXGXGXvXDXDXFXSXbX{.z bXbXvXvXDXbXbXbXSXDXvXbXvXuX'.h v.yXtXdXxXmXfXfXyXyXyXyX>X;X;X>X>X",
"KXKXLXLXAXHXKXFXKXAXGXGXMXGXAX0XO.kXvXvXHXHXSXbXbXbXvXvXbXbXG.1 M.kXxXuXNXzXuXxXfXaX>XaX>XyXaX>X>XyX",
"HXLXLXPXGXHXGXKXLXLXLXHXDXGXLXFXd.X.xXvXDXmXkXiXpXoX'.pXpX}.B.x z kXuXdXcXgXhXtX>XyXyXyXgXtX,XtXyX>X",
"AXLXLXLXLXKXHXGXGXLXPXLXLXAXFXFXF.F.kXM.V.B.A.' C.,.m.m.b.A.x b.H.kXxXsX1X*X1X1XaXgXtXdXtXfXuXfXyXyX",
"SXGXLXPXKXKXnXDXHXHXLXLXLXLXFXlXH.B.H.OXOX+Xc.k w r j ;.H.A.S.D.b.h n.I. .9.q.~ @.1XhX@X].gXcXiXyXyX",
"DXSXLXLXFXAXDXnXMXnXDXGXAXSXN.P.XXW.X.A.O O o o , 3 3 3 3 X.x b.E.<.w.H S 9.b M m 4.J 4.~ %.fXiXiXfX",
"DXGXAXGXKXGXhX+.+.j.j.].oX'.}.R._   o , 3 5 5 5 5 a.a.a.a.s.s.j <.-.0 8.F = 3.# v - - {  .5.I.$.$.XX",
"mXHXIXLXGX@X6.] V NXgX~ q.U.p & o f.4 4 t.t.y.u.u.k.i.k.k.4X4X[.N./ H G b = $ : # + = F | F ( ` _ v.",
"DXDXGXDXcX@X4.6.J.cX .S 0 q.& ..a.4 t.t.p.p.i.i.3X5X8X8X7X9XBXqX2X(.H K G G F : J = - F b S  .@ n.yX",
"GXbXpXo.@._.I M 6.M { [ a 2 %.6 C V u.u.i.3X6X8X7X9XCXCXVXPXPXjX/._.8.T A $ - R H = ; F  .^ %.<XaXfX",
"cXcX>.( I.] v v > > } ; = #.B +.L.L.k.6X5X8X7X7XCXVXVXJXIXAXPXMX(.q.{ T Z Z = } G ; G F #.J.hXtXtXtX",
" .5.{ F * + m + b R = $ 8.2.3.5.+.f.L.8X8X7XBXVXVXJXJXIXIXHXDXrX<X*XI.T.).-.D G Z # 3.{ #.$.tXdXfXfX",
"3.3.N I v * * m S H | 8.8.R 0.5.J.K.eXeXBXVXVXJXJXIXZXZXKXGXNXcXgX|.gXsX1X^.P 0 G G |  .<XgXcXxXiXiX",
"2.2.I n * J * : $ ( | #.%.^ / / h.`.f.0XjXZXIX0X[.[.ZXKXLXGXnXcXgXcXDXmX<XU.0 q & L 9.I.gXbXDXvXbXxX",
"4.2.I N 7.- : $ @ a #.@.g.g.B.F.'.oX2XxXlXSXSXvXmXDXDXGXKXGXgX#X1XsXgX<X%X>.P q ' _ Q.I.cXbXbXDXSXbX",
"hX1X2.Q e.H a L L p ).` g.M.M.B.}.+XOXOXiXiXcXcXsXsXcXmXcXtX1X*Xr.8.r.q.=.=.*.P ' ;.pX`.uXuXDXxXDXDX",
"hX6.J 3.e.9.o.p   y  .>.< 1 < u h _ o.v.B.}.'.|.|.;X>X=XsX*Xq.8.A A E U E K [ ) ' V.pXzXcXdXxXdXbXvX",
"/./.gXhXgXgX$.;.X i 0 | 0.H 8.=.( _ / ....s.s.s.h.`.P.].(.| U A Z W W Z U Y Y a _ M.cXcXfXtXaXaXfXxX",
"I.1XNXDXnXDXd.v.t l 0 [ K ; T } ( #.$./ j...f.h.l.`.].|.(.0.K A ! ! U Z R U [ a < B.fXcXxXgXgX>XfXfX",
"K.mXbXGXFXSXG.V.l l Y.P D Y q.[ T.` $.j.j.h.K.l.0X{.oX,X#XT.^.r.8.T K = ; Y > w j b.bXxXbXuXtXcXfXfX",
"HXlXSXbXSXlX+XH.D.,.C.w ) ) ).T.w.T.g.'.h.`.l.0Xl.[.wXdXP.*X).q.8.G ; [ ; D < & X x.X.xXmXiXkXiXxXfX",
"SXGXbXxXXXr +Xb.E.p . D.d d ) ) >.>.P.oX{.jX0XAXjXwXlXxXtX<X#XT.&Xw.=.-.) P d i i   X r t ;.pXkXkXuX",
"vX'.H.A.k u X v.E.E.x t . k & p a U.XXyXuXDXbXDXDXvXvXmXj 1 1X;Xu p >.) d *.' u :XB.d.X j D.;.v.B.'.",
"_ h r 1 iXmXxXxXo.Y.D.D.;.1   / y ) E.R.|.}.}.Q.R. XR._ < o.@ < w 8 s &.*.&.i pXbXiXkXvXiXh w &.k _ ",
"aXfXiXkXvXMXG.o 1 ;.i C._ X._ u U.~.!..XOXXXE.R.Y.1.~.R.@ < y & w e ;.l *.d u fXiXxXlXDXbXfX>X;X<X-X",
"xXmXxXbXbXxX].6 |.j h n.-X X.X!.!.%X-XY..X XE.XXR. XR.R.E.;.X ' ,.,.f f d @   % % P.xXkXzXuXfXaX>X>X",
"vXbXuXxXxXxXcX2XtX,X>X>X.XY.,.1.1.8 f !.C.XXR.>X.X;X.X-X-X.XA.A.s 1.e . &   & @.^ ^ aXdXuXDXtX>XaXaX",
"yXyX:X:X:X=X=X;X=X-X$XW.!.Z.7 c 9 9 9 Z.-X-XQ.&X;X~.%X X X$X;X|.m.W.Z.s .   % @.;X=X>X>XxXiXxXiXyXyX",
"OX-X-X-X-X;X-X;X;X<X X,.e Z.:.g 9 :.Z. XXX$X=XP.|.%X&X XXXn.aX>X.X!.Y.1.W.R.XX|.=X-X;X;XtXfXiXfXyXyX",
">X-X-X-X-X-X-X-X-X-X=X-X$Xm.W. Xe  X X$X-X-X>X>X|.aXR. X.X<.E.o.m.&.<.1.$X$X.X-X;X;X$X;X=X,XxXiXyX>X",
"-XXX-X;X-X-X-X-X:X-X>X-X;X;X%X%X X-X.X-X$X;X=X>X=X-X-X-X-X.X-X.X&X&X%X$X&X;X;X.X=X;X-X X;X=XiXiX>X>X",
";X-X-X-XOX-X>X-X>X,X,X,X-X=X=X>X:X-X-X-X>X-X-X-X:X.X=X;X%X%X%X%X%X;X&X$X%X%X-X>X,X,X>X=X-X:XmXiXyX;X",
":X>X>XyXyX>XfXcXfXcXiXfXfXfXyXyXyXyXfXyX,X>X>X:X:X:X,X>X=X=X=X=X=X=XyX:X>X-X=X>XyXpX,X>X>XaXfXfXfX>X",
"xXxXxXxXxXxXxXxXxXvXbXxXbXxXkXxXiXxXxXxXxXxXxXxXxXxXfXfXfXfXfXxXmXDXGXGXbXfXxXfXmXbXxXiXtXyXyXyXyX>X",
"bXbXmXbXbXxXbXmXbXDXbXbXbXxXxXxXxXxXxXxXzXMXbXbXxXxXxXxXxXxXxXvXSXFXGXKXSXbXxXxXbXvXDXvXxXfXyXyXyXyX",
"xXxXxXxXxXxXcXmXzXmXxXxXxXxXdXfXfXfXfXdXdXzXxXbXbXbXbXbXvXvXvXDXSXFXFXKXDXDXMXMXvXvXDXSXxXfXtXyXyX>X",
"xXxXxXxXxXxXxXcXdXxXxXxXxXgXxXfXfXiXiXfXfXgXgXxXbXvXvXvXvXvXbXbXvXlXDXlXDXzXbXdXzXbXSXDXvXxXtX>XyX>X",
"xXxXxXxXxXxXxXxXxXvXmXbXmXxXcXcXxXxXfXfXfXdXdXxXbXSXSXSXbXbXxXxXxXcXdXmXzXmXzXxXxXkXbXvXDXmXfXyX>X;X",
"xXxXxXxXxXxXxXxXxXvXbXbXxXxXxXxXxXxXxXfXaXaXfXxXxXbXbXbXbXxXxXfXfXaXaXtXgXxXxXxXxXkXxXzXMXmXxXxXaX>X",
"xXxXxXxXxXxXxXxXxXxXlXbXxXkXxXiXxXxXiXiXiXiXfXfXiXiXiXiXtXyXyXaXfXfXaXtXxXbXSXvXiXiXfXgXMXnXxXiXyX>X",
"iXkXfXfXxXxXxXxXxXxXxXbXbXxXxXiXxXxXfXiXiXiXiXyXyXaXaXaXyXyX<XyXtXfXyXyXdXxXbXvXkXiXfXdXdXzXxXxXfXfX",
"iXxXiXfXxXxXxXxXxXxXxXxXxXxXxXxXiXfXyXyXiXyXyXyXyXyXyXyXyXyXyXyXyXyXaXyXfXfXxXiXxXxXiXdXfXdXxXxXfXfX",
"iXxXfXfXxXxXxXxXxXxXxXxXxXxXxXxXfXfXyXtXyXyXaXaXyXyXyXyXaXyXyXyXyXyXfXyXyXiXxXiXxXxXiXiXfXfXfXfXfXfX"
};
