/* XPM */
static char *_50525f7b5a243da9758314ff05129b4wvrGox3yKals5v3t[] = {
/* columns rows colors chars-per-pixel */
"50 50 244 2 ",
"   c #251B00",
".  c #330D00",
"X  c #1E3E0F",
"o  c #232100",
"O  c #462B00",
"+  c #512900",
"@  c #4D3600",
"#  c #672C07",
"$  c #683408",
"%  c #73390E",
"&  c #264E0E",
"*  c #3D5B2B",
"=  c #355E29",
"-  c #2D5121",
";  c #38612A",
":  c #3B7628",
">  c #2E6021",
",  c #4F4B11",
"<  c #625207",
"1  c #4E6908",
"2  c #576902",
"3  c #47661A",
"4  c #596813",
"5  c #51781D",
"6  c #535B2A",
"7  c #475E35",
"8  c #574F20",
"9  c #486625",
"0  c #566626",
"q  c #457B2B",
"w  c #567929",
"e  c #4B653B",
"r  c #4D6C3C",
"t  c #456636",
"y  c #586A3A",
"u  c #497739",
"i  c #547739",
"p  c #667927",
"a  c #616B3B",
"s  c #647A33",
"d  c #72743D",
"f  c #5B6C42",
"g  c #576B47",
"h  c #4D7644",
"j  c #597747",
"k  c #5C7B50",
"l  c #496E42",
"z  c #67764C",
"x  c #777A45",
"c  c #687A54",
"v  c #636E44",
"b  c #79504C",
"n  c #862B00",
"m  c #A63B19",
"M  c #953E27",
"N  c #A34009",
"B  c #974B2D",
"V  c #924527",
"C  c #87553A",
"Z  c #B35A26",
"A  c #AA5924",
"S  c #B06632",
"D  c #8F610D",
"F  c #CD7526",
"G  c #CA7A34",
"H  c #D07431",
"J  c #90574D",
"K  c #AE5C44",
"L  c #B07A47",
"P  c #CB774B",
"I  c #46852C",
"U  c #4A8B32",
"Y  c #4C8937",
"T  c #56853A",
"R  c #4D983C",
"E  c #58983B",
"W  c #51802F",
"Q  c #6B8A3D",
"!  c #53A03A",
"~  c #578746",
"^  c #549E44",
"/  c #5C9A49",
"(  c #5B8451",
")  c #4D8E40",
"_  c #668846",
"`  c #778A45",
"'  c #6A954C",
"]  c #65984A",
"[  c #719D49",
"{  c #668757",
"}  c #778A56",
"|  c #6A9A55",
" . c #749455",
".. c #7A9252",
"X. c #7B945B",
"o. c #749759",
"O. c #5BAD4C",
"+. c #56A346",
"@. c #65A849",
"#. c #64A551",
"$. c #78A455",
"%. c #71B052",
"&. c #7C9861",
"*. c #7D8B67",
"=. c #78AA65",
"-. c #7FC85F",
";. c #82963D",
":. c #B68536",
">. c #D88834",
",. c #DE903E",
"<. c #8E9154",
"1. c #A78846",
"2. c #B28553",
"3. c #AA9251",
"4. c #84A858",
"5. c #9BA04E",
"6. c #A9AB59",
"7. c #939767",
"8. c #898F66",
"9. c #AC9664",
"0. c #9AB97B",
"q. c #91A86E",
"w. c #AAAA65",
"e. c #B1B870",
"r. c #DB8C4B",
"t. c #D69657",
"y. c #CB914D",
"u. c #E4984C",
"i. c #E69D50",
"p. c #D9AD4E",
"a. c #E5A859",
"s. c #E9B545",
"d. c #C9AA78",
"f. c #CCB86E",
"g. c #E1AC67",
"h. c #EFB66B",
"j. c #DB9371",
"k. c #84C068",
"l. c #B7CA76",
"z. c #ABCC72",
"x. c #F0CF51",
"c. c #E7F058",
"v. c #F4F458",
"b. c #F3CB71",
"n. c #DCEB70",
"m. c #E9E97F",
"M. c #E7F378",
"N. c #F9F578",
"B. c #F3F06A",
"V. c #CBD17B",
"C. c #97B886",
"Z. c #ABB18C",
"A. c #CFA782",
"S. c #FBAD84",
"D. c #EBBB8A",
"F. c #B2CC92",
"G. c #B9CEA7",
"H. c #CDD58A",
"J. c #F1CE8D",
"K. c #C9E08E",
"L. c #D4ED8C",
"P. c #E6E983",
"I. c #F2EB88",
"U. c #FBF68C",
"Y. c #EDE599",
"T. c #E8F59E",
"R. c #FCF798",
"E. c #C2D2AB",
"W. c #F9DCB8",
"Q. c #FFCEA9",
"!. c #DEEAAA",
"~. c #EEEBA3",
"^. c #EFEAAA",
"/. c #FCF8A8",
"(. c #E8EEB8",
"). c #F5EDBB",
"_. c #FDECBD",
"`. c #F9E7B9",
"'. c #EAF5BA",
"]. c #EBF4B1",
"[. c #FBF1BD",
"{. c #F7F6BA",
"}. c #F2F4A8",
"|. c #FFDAC2",
" X c #DEFCC6",
".X c #DBFFD3",
"XX c #DDECC3",
"oX c #F3E6C3",
"OX c #F5ECC3",
"+X c #FDEDC4",
"@X c #F5EDCC",
"#X c #FCEDCB",
"$X c #FEE3C4",
"%X c #EDF4C5",
"&X c #E5FDC5",
"*X c #EDFBC5",
"=X c #E3FECB",
"-X c #EAFECB",
";X c #EEF5C9",
":X c #F4F3C3",
">X c #FCF2C5",
",X c #F2FBC4",
"<X c #FCF9C6",
"1X c #F5F3CC",
"2X c #FDF2CC",
"3X c #F4FCCB",
"4X c #FDFBCB",
"5X c #F3EFD2",
"6X c #FCEED3",
"7X c #FCEEDB",
"8X c #F6EBD9",
"9X c #ECF4D4",
"0X c #E6FED4",
"qX c #EDFED4",
"wX c #ECFEDC",
"eX c #E6F7D9",
"rX c #F5F3D3",
"tX c #FDF3D4",
"yX c #F4FCD4",
"uX c #FDFBD4",
"iX c #F5F3DC",
"pX c #FDF5DB",
"aX c #F4FDDB",
"sX c #FDFADC",
"dX c #ECEECC",
"fX c #FAECE5",
"gX c #EEF3E4",
"hX c #EEFEE5",
"jX c #EBFFE8",
"kX c #F5F5E2",
"lX c #FEF6E1",
"zX c #FCF5E3",
"xX c #F4FDE2",
"cX c #FDFBE4",
"vX c #F5F3EB",
"bX c #FCF5EB",
"nX c #F5FDEB",
"mX c #FFFDE9",
"MX c #FDFCEB",
"NX c #FFF6F3",
"BX c #F5FFF2",
"VX c #FEFDF3",
"CX c #FFFDFA",
"ZX c #FFF3FA",
/* pixels */
"uXyXsXiXMXiXpXsX5XsXuX1XtXuX#X+X+X_.>X:X2X6X6X7X+X<XOXOX2X2X#X#X2X2XOX:X{.[.+X#X_._._._.>X>X#X#X#X+X",
"sXsXsXiXzXzXsXpXsXsXuXuXtXtXuXtX+X#X>X4X2X#X7XtX>X).>X#X2XOX4X#X2X2X2X2X).[.+X#X+X+X_._.>X>X#X#X#X+X",
"lXlXcXiXzXzXcXpXcXmXmXcXiXzX8XpXtXpX1XOX_.2XoX1X3X,X%XOX#X2X`.+XtXtX+XOXuXOX#X2X2X2X+X_.[.>X+X#X+X_.",
"MXzXcXlXzXpXpXlXcX8XkXMXmXMXzXlXpXpX1X>X>X`.:X3X].Q ` d {.).>X4X2X#X<X+XOXtX2X#XtX2X#X_._.[._.+X_._.",
"VXMXnXMXmXlXlXlXlXmXMXMXiXkXcXpXlXpXtX2X>X<X'.s e.P.P.V.p s '.*X} , w.w.6 } 2XOX2X#X+X+X_.[._.`._._.",
"VXVXMXnXmXmXMXlXcXcX5XsXuXuX>X2X<X>XuX6X2X:Xs <.T.5.@ f.l.Q _ i 3 K.5.~.!.} a 3X1X>X+X+X[._.`.`._.`.",
"MXVXVXMXMXVXVXMXpX2Xd.d.y.:.@ b.D /.2XpXuX*Xw l.~.f.. O l.[ u T l.o   Y.}.K.Q &X,X:X+X+X>X[._._.`.`.",
"MXMXVXVXMXnXnXMXuXd.J.g.r.>.$ b.b.J.4XuX} T 9 0 H.^.9.3.w.[ q W z.6.  6.T.z.$.' *X:X[.>X>X>X+X_._._.",
"BXVXCXVXkXhXnXqXH.f.h.a.a.,.n J.+ 9.<XF.[ U W q q w $.3 $.: : q Q z.K.K.z.W q ~ 0.'.:X2XOX2X+X+X_._.",
"gXVXCXNXnXxXq.7.f.b.h.p.i.r.m P $ A.Z.q.%.@.U ^ I R U R Y Y Y Y U q E E W T T o.` ,X<X#X#X#X#X#X_._.",
"VXVXCXNXVXmX2Xd.g.h.a.a.J.P m n % L sXyXi %.@.! +.R R ^ ^ R ) ^ R ! R ^ / ] 4.` ..,X+X#X2X#X1XOX+X+X",
"kXVXNXCXVXsX_.t.u.u.i.t.y.S.M P L 2.pXMXqX~ I %.@.@.O.O.^ +.+.+.R +.+.#.| ..w.5.{.3X_.#X+XuXsX1X>X+X",
"cXzXVXMX0XuX2.G >.>.>.r.P K |.% y.1.pXMXMXaX0X| Y q.@.@.@.O.O.O.O.#.@.$.(.W.J.D.[.:X#X#XtX#X`.2X#X#X",
"sXcXcXMXnX8.S H F F G P j.M C O 1., mXvXbXmXxXwX X' 4.[ @.+.+.+.#.] $.0 uX$XA.j._.).OX#X#X#X2X+X#X#X",
"sXcXVXVXCXcXB Z S Z A S.B Q.# d.e.d MXCXVXbXvXnXwXqX3X3X& ~ ) ~ F.3XaXaXuXsX$X#XOXtXuXtX2XOX+X`.+X#X",
"cXmXvXCXCXVXJ B V S h.N Q.$ 2.d.x yXMXCXVXVXCXVXkXaXsXyX7 h u t yX1XcXiXsXsXcX6XtX6X#XOXtX2X>X>X+X+X",
"mXcXVXVXBXVXVXb J $ s.x.+ 2.<.8 uXiXvXCXCXNXVXMXmXkXaXE.t - h r { qXsXuX@X2XpXsXpXpX@X>X+X>X2X#X2X2X",
"MXMXnXBXBXBXCXCXZX|.p.x.< , x z aXmXMXvXvXVXnXVXMXMXxXe 7 * X j r aXaX1XuX2XtXpXcXcXtX2X+X+X#X#X#X#X",
"fXNXMXVXVXVXgXMXbXMX4X{.uX{ h ( aXaXxXMXVXfXMXnXCXnXwX* t t 7 C.g f aXsXrXuXpXrXpXpXtXsXtX@X#X2X2X2X",
"NXbXMXMXVXBXMXMXMXVXMXMXhXjXjX( k aXxXkX8XlXzXMXVXnX0 9 j e 7 xXj f Z.aXuXrXrXpX6X6X6XsXuXuXtXtX#X#X",
"lXlXMXMXVXvXVXkXMXMXVXVXnXgXBXhXz f wXxXmXpXcXiXBXZ.p 4 9 * g hXxXz z v aXaXdXpXiXpXtXpXsXpXsXpXuXuX",
"sXiXzXiXMXVXVXvXcXzXVXVXVXVXvXVXwXc g wXaXsXpXrXqX0 P.n.1 9 7 xXxXxXaXv 8.*.iXcXiXpXpXpXpXtXsXpXsXpX",
"mXrXpXiXpXpXkXbXMXMXmXcXMXVXbXVXVXxXeXg aXyXuX,X0 2 B.c.M.1 9 G.xXMXwX{ z mXcXzXiXiXsXuXpX6XpXpXlXlX",
"iXcXmXiXmXcXMXVXMXMXsXsXzXMXMXVXVXVXMXwXf f 6 0 4 m.B.v.c.2 3 e wXxXhXk wXmXMXzXsXsXpXtXpX6XpXtXpXpX",
"kXMXcXmXMXmXkXxXVXnXmXiXMXmXcXcXVXCXnXnXwXf y 0 R.m.N.N.B.n.w t *.xX.X{ hXMX8XlXpXuXsXsX7X6XtX>XtX2X",
"MXMXkXzXzXMXMXmXMXnXmXcXmXMXcXcXVXfXVXnXMXcXXX3X/.I.R.U.N.M.3 r e aX{ .XhXkXfXmXsXsXsXsXpX6XtX2X2X>X",
"MXcXzXcXzXMXMXmXMXzXzXMXMXMXzXMXlXcXvXVXVXMXmX1X[.Y.}./.U.U.9 t r * { wXnXmXMXlXuXsXsXsXpXtX2X2X2X2X",
"pXpXlXmXkXzXcXmXcXcXlXMXlXMXzXMXmXlXbXVXgXMXzXcXuX4X~.R.R.P.w u u _ qX9XaXcXcXcXtXsXpXpXsXtX#X#X2X2X",
"pXpXsXcXrXrXcXmXcXmXcXmXzXmXmXmXcXpXMXkXmXcXMXzXzX4XY.U.N.M.5 q ] ' F.yXsXrXpXpX7XpXtXpXuX1X#X6XtX2X",
"cXcXsXsXuXuXcXcXzXmXmXmXcXmXmXcXmXmXiXpX5XcX7XVXVXyX}.I.N.M.W ] @./ 0.%XrXsXsXpXpXpXrXpXpXtXuXpX#X#X",
"cXmXcXcXcXmXpXzXzXcXcXcXmXzXmXzXmXcXcXcXpXrXiXMXMXcXuX/.P.P.& / -.E ' uXsXtXtX@XiXpXiXpXpXpXpXuXuXuX",
"kXmXcXlXiXlXpXpXcXcXcXcXmXkXMXcXpXpXmXcXpXsXpXiXmXcXcX4X/.;.' : %.E o. XrX@XuXtXuXtXpXcXsXuXtX2X2X2X",
"pXpXpXcXlXcXlXcXzXzXsXcXmXcXlXsXcXcXcXcXsXsXsXtXrXsXaXZ.8.&Xi > | #.|  XqXaX@XtX#XuXtX#X@X1X2X4X>X+X",
"mXcXiXpXpXlXpXpXmXcXsXcXcXcXcXmXiXcXcXcXcXsXpXpXpXrXaXxXaXwXk = C..X| o.yXyXuXOX#X#XtX#XuXuXOX>X>X>X",
"cXpXpX6XpXpXpX6XpXiXiXpXpXpXpXpXlXlXkXzXmXMXpXpX6XiXcXaXmXwX( =  X-X0.X.3X1XuXcX@X2X#X#XtX@X2X#X#X#X",
"pXcXmXpXsXpXpXpXpXpXpXsXpXpXpXpXpXcXMXbXMXkXiXmXpXcXrXrXsXaX( ; X.-X-XX.7.uXcXaXcXsXoX#XuXtXuX#X+X#X",
"pXsXsXcXiXsXpXsXsXsXpXpXpXpXpXpXpXcXzXzXcXpXpXsXsX#XsXuX1XaX~ | o.qX-X7.uXsX9XaXcXiXtXtX2XuX#X#X+X_.",
"iXpXrXiXrXsXiXiXpXpXiXpXpXpXtX6XpXuX8XiXmXmXtX6XuXuXtX2X1X,XT ~ & xXyXaXsX5XcXmX8XiXpXuXOX#X@X2X_.`.",
"sXsXiXsXsXsXpXsXpXpXpXsXaXsXyXrX2XtXsXsXsXpXpXtX1X1XtX>X>X,X~ | ; k hXeX5XsXmXzXcXlX#X2X2X1XuX>X_.`.",
"pXiXsXsXsXtXpXcXpXpXtXpXsXsXaXyXuXuXsXiXiXsXpXuXuXuX#XtX2X3X~ ~ t 7 nXxXiXsXrXmXmX6X6XoX:X<X4X>X<X_.",
"uXpXpXpXtXtXtXpXtXpXpX6XpX6XuXuXtX1XsXiXpX5XsXsXsXsX6XpX6XyX{ ( wX7 g xXcXiXuXuXsXpXtX#X).).).#X+X_.",
"tXpXpXpXiXpXpXpXpXpXpX6XsXpX6X2X>XuXuXpXtXsX@XpX5XtXpXpXpXrX.X{ 0XqXr g 9XsX1XuXpXpXcXsX4X<X+X#X+X+X",
"tXuXuXuXiXaXsXsX5XsX6X6X6X#XtXuXuX>XtX2XtXuXuXtXtXsXtXpX6XsXyX{ ' =Xh l g -XuXtXpXpXsXsXpXtX#X#X+X_.",
"tXtXuXpXiXiXiXpXtXtXtXsX2XuXuX1X(.3X:X1XuXdXuX4XuX1XuXsXpXyX-X X~ / .Xu r y z 1X#XtXpXsXsXpX#XOX+X_.",
"tXtXtXtXtXtXtXtXtXpXsXrXyX-XX.o. .X.-X&X-X&X&X&X&X&XqX-XyX-XF.=.| / / u j f a 1X1XtXpXcXcXsXtX#X+X`.",
"tXtXtXtXtXtXtXtXtX#XsXuXqX-Xq.o.o.' X.X. .X. ..... .} &.} }  . .' ' '  .&XuXrXaXuX1X6XtXsXsXpXtX>X_.",
"6X6XtXtXpXpXpXuXtXpXtXtXuXuX;X%X3X,X3X1X%X%X4X<X:X:X,X%X4X:X<X:X3X*X'.:XOXuXsXsXrX@XtXuXpXsXtX#XOX_.",
"#X#X6XtXuXpXpXpXtXtX6X6XuX2XuX1X:X4XOX#X2X2X_._.+X>X2XOX2X#X>X_.OX4X[.).2X2XpXsXrX1X2X2XtXtX2XtX2X2X",
"#XtX2X2XtXtXuXtXuXuXtXtXtXtXuXuX>X2X#X#X>X#X#X+X+X+X+X#X#X+X+X+X#X+X>X+X>X2XtX#XtXtX#X#XtX2XtX2X2X2X",
"#XtX2X2XtXtXuXtXtXtXtXtXtXtXuXtX2X2X#X#X#X#X>X#X+X+X+X+X>X+X#X#X+X+X2X+X#X#XtX#XtXtX#X#X2X2X2X2X2X2X"
};
