/* XPM */
static char *c1934ae24d434caa95fdcc637d3a4cf1M85OjonOnjqCMu7I[] = {
/* columns rows colors chars-per-pixel */
"50 50 254 2 ",
"   c #7A3B07",
".  c #593726",
"X  c #7E410E",
"o  c #65462B",
"O  c #6B5338",
"+  c #665533",
"@  c #7B5F41",
"#  c #776C4B",
"$  c #813E09",
"%  c #933F10",
"&  c #B13213",
"*  c #933423",
"=  c #D1381C",
"-  c #E93F18",
";  c #DD2B3E",
":  c #D53924",
">  c #89450D",
",  c #874916",
"<  c #954B14",
"1  c #935118",
"2  c #A35718",
"3  c #8E542E",
"4  c #AA5627",
"5  c #A95834",
"6  c #B8542A",
"7  c #986537",
"8  c #966D38",
"9  c #A96527",
"0  c #B7682A",
"q  c #A96D3A",
"w  c #B56A34",
"e  c #BA7838",
"r  c #AA7438",
"t  c #D9481D",
"y  c #E5451B",
"u  c #F14319",
"i  c #C45A2A",
"p  c #D95629",
"a  c #C84B34",
"s  c #CC5B39",
"d  c #C65737",
"f  c #DA5836",
"g  c #D04426",
"h  c #E7582A",
"j  c #E75A37",
"k  c #EB5029",
"l  c #DB672F",
"z  c #CA6436",
"x  c #DB653E",
"c  c #D56538",
"v  c #D7743B",
"b  c #CD7531",
"n  c #EB662D",
"m  c #EA6835",
"M  c #F36836",
"N  c #E57035",
"B  c #F7753D",
"V  c #F2672D",
"C  c #E53A4E",
"Z  c #905A49",
"A  c #976B46",
"S  c #877759",
"D  c #8D7246",
"F  c #A97949",
"G  c #B87946",
"H  c #B9734F",
"J  c #A26B55",
"K  c #EA485A",
"L  c #E04B4F",
"P  c #C57945",
"I  c #D87948",
"U  c #C97B56",
"Y  c #D57A57",
"T  c #CF6748",
"R  c #E46C42",
"E  c #EA6944",
"W  c #ED7446",
"Q  c #E77846",
"!  c #F27443",
"~  c #F47A49",
"^  c #FA7D4A",
"/  c #F57B45",
"(  c #EE764D",
")  c #EE5767",
"_  c #F1586A",
"`  c #F45F72",
"'  c #D6786C",
"]  c #F46A7B",
"[  c #F66478",
"{  c #ED6B74",
"}  c #B9833E",
"|  c #C2823D",
" . c #F8833E",
".. c #978656",
"X. c #B9884C",
"o. c #AA8957",
"O. c #B78757",
"+. c #BB9659",
"@. c #AA9A5F",
"#. c #9E8D6E",
"$. c #BC8C62",
"%. c #B99468",
"&. c #A58975",
"*. c #AC9071",
"=. c #B9A47A",
"-. c #B3A369",
";. c #96A274",
":. c #C28444",
">. c #C6894C",
",. c #C78855",
"<. c #D68857",
"1. c #CA9559",
"2. c #DA9859",
"3. c #D28A4A",
"4. c #E8864A",
"5. c #FC814D",
"6. c #F58249",
"7. c #E88A59",
"8. c #F78957",
"9. c #EE9857",
"0. c #ECA65C",
"q. c #C69766",
"w. c #D79866",
"e. c #C99A77",
"r. c #DD9C73",
"t. c #D69778",
"y. c #CE8A65",
"u. c #EA9A67",
"i. c #F99668",
"p. c #EA9A75",
"a. c #EE916E",
"s. c #D4A365",
"d. c #D5A86B",
"f. c #DCB36D",
"g. c #CCAA79",
"h. c #D9A875",
"j. c #C7B27A",
"k. c #DBB373",
"l. c #DCB47C",
"z. c #D5B77B",
"x. c #C6A668",
"c. c #E7A368",
"v. c #F3A769",
"b. c #E8AA76",
"n. c #F6A778",
"m. c #E2BB7C",
"M. c #E7B678",
"N. c #F2B77A",
"B. c #EEB16E",
"V. c #E5C27E",
"C. c #F3C675",
"Z. c #F77989",
"A. c #F26F81",
"S. c #B99A84",
"D. c #B18D81",
"F. c #B7A68B",
"G. c #BBB59D",
"H. c #B0A891",
"J. c #B9B6A9",
"K. c #9E9985",
"L. c #CF9B8B",
"P. c #FA848B",
"I. c #FC8494",
"U. c #FB8B9A",
"Y. c #F99799",
"T. c #EF968A",
"R. c #C9A886",
"E. c #D7A884",
"W. c #C7B485",
"Q. c #DAB787",
"!. c #C7B39A",
"~. c #D8B998",
"^. c #C7A996",
"/. c #E4A987",
"(. c #F7A882",
"). c #E7B887",
"_. c #F2B889",
"`. c #E7B895",
"'. c #F4B995",
"]. c #ECA993",
"[. c #FC9AA5",
"{. c #FD98A7",
"}. c #FF9EB0",
"|. c #C5BCA8",
" X c #D7B7A7",
".X c #CFADA4",
"XX c #FCA5AA",
"oX c #F6B6A4",
"OX c #FEABB2",
"+X c #FEADB9",
"@X c #FDA5B3",
"#X c #FEB3BC",
"$X c #FEB7BC",
"%X c #E8BCA9",
"&X c #BFC3B5",
"*X c #DAC486",
"=X c #DAC69A",
"-X c #D4CF91",
";X c #E4C383",
":X c #EAC485",
">X c #E4C38A",
",X c #EDC58B",
"<X c #E8CA8A",
"1X c #F2C789",
"2X c #EBCC94",
"3X c #EACD9B",
"4X c #E7C697",
"5X c #F3C599",
"6X c #ECD39B",
"7X c #EAD393",
"8X c #F2D39C",
"9X c #DAC8A9",
"0X c #CAC6B3",
"qX c #D6CCB6",
"wX c #DBD4BC",
"eX c #CDC9AC",
"rX c #E7CCA7",
"tX c #F5C9A8",
"yX c #ECD5A3",
"uX c #EEDAA5",
"iX c #EAD6AA",
"pX c #EEDBAA",
"aX c #E3D5A8",
"sX c #F1DBAB",
"dX c #F4D5A7",
"fX c #E4C9B2",
"gX c #F6CEB6",
"hX c #ECDCB3",
"jX c #E7D7B8",
"kX c #F3D2B4",
"lX c #F6DAB8",
"zX c #EDE2B7",
"xX c #F3E2B9",
"cX c #F6E3A9",
"vX c #FEBCC3",
"bX c #FEB7C3",
"nX c #D9D5C7",
"mX c #D6D3CD",
"MX c #FEC3CA",
"NX c #FBCACC",
"BX c #EADBC3",
"VX c #F8DBC6",
"CX c #FFCAD2",
"ZX c #FDD7D8",
"AX c #E4CECB",
"SX c #E9E5C9",
"DX c #F6E6C7",
"FX c #ECE7D6",
"GX c #F8E8D7",
"HX c #EDF0D4",
"JX c #DEE9E6",
"KX c #E6EDEB",
"LX c #F8ECE2",
"PX c #F5F3EC",
/* pixels */
"uXuXuXuXdXsXsX2.iXuXuXuXuXuXuX6X,X6X,X6XuXuXpX6XDXuXuXuXuXuXuXuXuXuXuXuXuXuXuXuXuXuXuXpX6XuXpXsXpXuX",
",XuX6X_.v.n.n.9._.n.:XuXuX6Xm.l.:X2XuXuXuXuXDXW W 3XuXuXuXuXuXuXuXuXuXuXuXuX6XpXuXpXxXsXQ.f.3XsXm.l.",
",XsX6X:X_.7.~ R ^ 5.4._.,Xh.).Q.uXuXuXuXuXuXSX4.M r.zXuXuXuXzXyXyXuXuX3Xe.q F rXyX6XhXdXl.1.f.hXf.h.",
"uXlXxXuXuX>Xu.7.5.^ ~ i.v.).uXuXuXuXuXuXuXuXpXpXB t 9XuXuXuXd.N 7.uX:.w 9 1 , , , 6X8XiX>X>.>.3Xl.>.",
"uXpX8XB.v.( 8.8.i.5.5.8.n.uXuXuXuXuXuXuXpXpXuXyX7.m f g.c.s k B E.jX0 2 < > X X 6XuXyXpXf.1.:.s.Q.uX",
"uXuXm.P c R ^ 5.i.i.! ^ E n.uXzXuXuXuXwXD..X XF.y./ g = - ! u ,.*Xe 2 < >   , 6X7XsX2XpXk.2.e :.6XuX",
"uXuXl.I ( R ~ 5.5.j 8.^ s v.HXSXaX|.JXL.z l y.^.x ^ h h M y 1.*XzX2 > $   %.<X<XyX<XpX4Xk.1.d.<XuXuX",
"uXuXt.s ~ R d W s / 5.^ ^ 8.2.P 3.c.iXc.i w f k V t B B M y z.V.s.<   *.=X2X<X:X2X<XyXk.l.>.Q.uXuXuX",
"uXuXh.s W x W s d d / ^ ^ R A # J.).%XY 4.k k V N ^ M B m : <.;XG > o.2X:XV.V.yXm.4Xl.s.s.:.uXuXuXuX",
"uX).P P R j s d d 9.^ E _.<.c.w.kX XKX~.f 7.q.i N n Q h / B f z 1 $.2XM.l.k.s.d.d.d.1.1.>.6XuXuXuXuX",
",Xc.h.h.d x ^ ~ E ^ R 5.i.B.:X3XBXKXKXmXmX|.&.< b M E t N m ! w e <XM.f.Q.d.1.:.G X.,.q.pXpXpXuXuXuX",
"b.uXuXuXh.T x d a x 5 T tX<.b.M.).PXKXKXmXnX3 U <.N p 4 8 s.:.4.;X;X).jXBXGXGXhX=.7 &.9XqXSXnXeXuXuX",
"uXuXuXuXjXr.z Y U U . o I i 6 z /.t.S.^. X5 P ,.6 V u A r } f.X.S D S F.BX9XDXGXQ.,.3 lX!.|.FX0XiXuX",
"uXuXuXuX9Xc.<.u._.).b.`.+.w.w.6 & & * % Y 0 6 v z V l 1.7 d.q.f.g.D o H.FXL.' S A w.).lXfX~.aXjXiXuX",
"uXuXuXuX5X2.<Xb._.DXz.,.9XQ.rX5 W.~.H w w H 6 2 Q M v.,XF q.w.iXl.g.fX X{.OXOXZ Z Q.4XQ.fXK.F.!.yXuX",
"uXuXuX2X_.`.5X5X`.SXl.h.M.jX,XrX%.w g.R.H 4 4 0 v a.'.xXaXr :.8X-XW.W.Z.@XZXXX{ A 4XrX*XBX0X*.).uXuX",
"uXuXuX6X6XpXjXjXGX9XhXM.rXhX4Xb.LXGXBXLX!.~.3.2.p.XXCXOXoX`.q.1.+.=.~.XXOX$X[.Z G.0X!.0XGX0XH.=.uXuX",
"uXuX2X,XuXuXq.!.FXX.;XSX:XkXGXdXGXlXlXlX_.LXjXpXoXU.OX+X$X[.T.`.x.q.[.OXZXOX[.U a nXqXKXJ.H.R.&.uXuX",
"uXuX6X6XuXQ.e >XiXx.+.yXDXdX5X5XkXN.tXv.b.VXB.GXxXP.U.OXMXvX#X[.Y.[.#X#XU.OXU.I I '.VXG.qX0XS.&.uXuX",
"uXuXuXuXyXm.8X6X1.sXDXuX5XVX7.DXlX1XGXC.GX0._.PXdXzX[ Z.#XvXCX$X#X$X#XMX$X$XT.a.u.tXGXDXuXnXwXS.uXuX",
"uXuXyX6XpXpXzXyXrX4XpXyX_.oXN.GX5XN.lX_.DX_.VX0.gXGXpX[ I.[.#XCXvXMX$XZX$XOX].`.~.xXhXv.sXuXrX&XuXuX",
"uXuX>X2.3XDXhXl.l.yXzXsXb.p.8X_._.N.5X_.9.lX1XtXGX5XpX` [ Z.U.+XCXCXMX+XvXOXY.oXVXuXuXsXuXuXuXxXuXuX",
"uXuXuXd.1.sXm.1.l.pXsXuXyXxX9Xq G 8XtXDXtXB.VXkX7.%XAXuX_ [ I.{.}.CX@XCXMXMXbX@XY.oXuX3X3XuXuXuXuXuX",
"uXuXuXk.e ;Xd.e ).<X6X6XF 1 , 1 9 w >.dXlXlXB.'.BX`.~.yX_ ] P.{.{.vXbXbXbXZXMXMXvXbXOXoX~.uXuXuXuXuX",
"uXuXuXuX6Xs.>.:.l.yX7XuXyXq X > 1 2 9 h.DXdX_.5Xc.<..XC _ I.{.CXZ.{.{.{.+X@XCXbXbXCXMXMXCXXXuXuXuXuX",
"uXuXuXuX6X>.w >.l.3XyXuX6XyXF   $ > 2 w 5X5Xu.`.%Xt.C ` I.}.Z.{.[ Z.+X{.I.U.I.I.U.I.U.[.{.T.uXuXuXuX",
"uXuXuXuXuXyXq.>.l.).hX:XpX:X7XO.    > 2 GX5Xu./.t.C ] U.I.U._ ) ) ] CXU.] ] A.[ [ _ ] Y.T.hXhXuXzXpX",
"uXuXuXuXuXuXuX:.l.k.3X3X2X7X:X2XDXo.  > e 4XyXuXK I.U.U.[ K ) K K _ ] U.[ ) fXhXuXdXgXgX3XQ.Q.sXaXpX",
"uXuXhXBXuXuXpX<.1.d.k.3Xm.2Xm.:X<X;Xe.> 2 6XyXY.U.[ A.) K C ; ; L ) @X+X[ ` hXtX(.p.(.tX'.gX,X6XM.l.",
"uXuX=X!.jXjXpXdX1.1.1.s.h.s.d.k.f.m.:X~.1 w t.{ _ K C L ]. X~.a.; K [ U.] '._.8.8.i.i.i.n.(.gXVXQ.=X",
"uXuX9XH.^.wXjX9XFX`.e :.e b e :.s.k.f.<Xq.0 ].{ ' Y `.yX:XyXeX^.' { K ZXGXLXQ l Q Q '.7.i.i.(._.lXoX",
"uXuX=X&.S.J.|.|.BXjXU g O.3 o @ o D g.;X>X/./.]./.`.4X4X5X3X_.'.NXgXGXVXVXGXPX/.<.p.'.I v Q 7.p.'.u.",
"uXuX=X&.F.!.mXJX|.|..X5 F 3 + ..-.-X-.+.1.q.e.'.`.dX4Xr.<.3.b.).q._.GX`.5X(.n.i.i.n.8.b.b.].`.'.GXkX",
"uXuXyXg.F.G.HX9X4X4Xg.3 O @ D ;.H.W.j.aXz.,.F q.iXtXN.c c 6 H /.Q.h.w.N.8.~ 5.R ! I tX5XtXGXlXkXkXkX",
"uXuXuX).*.eXnX2XkXrXR.O O # -.mXLX~.=X4XQ.h.:.O.$.1Xv.V Q w w H H w.b.i.8.^ ^ 7.9.).rX`.`.GXtXh.w.b.",
"uXuXaX!.F.K.^.`.`.).$.O + # #.PXnX&.A *X>X;Xg.,.7 w.l h v w.I U P e.w.i.5.5.i.8.8.f ^ v.0.w.h.l.h.r.",
"uXuXaXqXaX9X~.VX5XQ.,.A G.H.*.SX0Xo O D ..f.g.X.7 F u M i N.U G e.`.( j ~ 8.i.8.^ ^ d d P ,.,.d.Q.wX",
"uXuXiXqXSXqXF.BXh., e.=XGXHXSXjX9XW.o.b.2.| 0 } 8 7 t M I r.,.L.nXfX( x 8.W E ^ ^ x ^ 7.P E.,.tX~.iX",
"uXuXpX9XnXFXnXqXjXZ A W.hXGXGXBXjXiXz.k Q 6.>.2.q p m Q aXc.2.P >.u.^ ^ ^ ^ x R c s ^ R 6 9X9XjXuXuX",
"uXuXuXaX9XzXhXQ.F.eXS ..W.jXDXDXSXhXcXn.x h 6.! ! p 9.! l b 5 R.E.a.8.8.~ R d d R s / x d =XuXuXuXuX",
"uXuXuXuXuXsXiX0 ~.LXK.+ ..j.=XxXDXxXxXcXk.z = V 6.M p B N n h j M h T.n.E 8.I s c j E d ,.:.3XuXuXuX",
"uXuXuXuXuXuXG %.< F.qXS O ..@.W.-XaXuXuX7X;X3.: h B B B N B M j g p 7.i.W W E R ~ W a U .Xt.N.>X2XuX",
"uXuXuXuXuXDX2 < $   S.~.S O D o.-.j.*X*X;XV.z.y M B B m M p ' 3.0 z p.E.3 5 a a c s <.6XuXuX6XM.,XyX",
"uXuXuXuXuXd.<   A  X3X<X*X=.D D +.j.*X7X7X;X1.y M h k m V S.w.v s H Q.R.S o.t.w.P I 4X6XuXuXuXuXuXuX",
"uXuXuXuXuXX.> 7 2X:XV.;XyXl.3X|.%.+.x.z.*XO.- ^ k = = m ! H.J.mXmXeX>XuXuXuXuXuXQ.2.2X6XyXuXuXuXuXuX",
"uXuXuXuX1.1 F <XM.m.k.s.h.h.h.1.1.>.yXqXE.m k g 7.R.I t ~ <.uXpXuX,XyXuXuXuXuXuXuX>XN.yXuXuXuXuXuXuX",
"uXuXuXuXw G <XM.k.f.1.| e G :.| 1.yXuX6X4.n I /.yXaXyXY h  .iXuXN.3XuXuXuXuXuXuXuXuX2XB.uXuXuXuXuXuX",
"uXuXuXuX3Xm.>Xm.6XuXuXuXuXuXuXuXuXuXuXuXrXyXHXuXuXuXpXrXm 5.b.xXv.uXuXuXuXuXuXuXuXuXuX6XuXuXuXuXuXuX",
"uXuXuXuXuXuXuXuXuXuXuXuXuXuXuXuXuXuXuXuXuXuXuXuXuXuXuXuXw.M u.DXyXuXuXuXuXuXuXuXuXuXuXuXB.uXuXuXuXuX",
"uXuXuXuXuXuXuXuXuXuXuXuXuXuXuXuXuXuXuXuXuXuXuXuXuXuXuXuXhX_._.pXuXuXuXuXuXuXuXuXuXpXuXuXuXuXuXuXuXuX"
};
